<svg xmlns="http://www.w3.org/2000/svg" width="1600" height="900" viewBox="0 0 1600 900" role="img" aria-label="Abstract productivity illustration">
  <defs>
    <linearGradient id="g1" x1="0" y1="0" x2="1" y2="1">
      <stop offset="0" stop-color="#4f46e5" stop-opacity="0.95"/>
      <stop offset="1" stop-color="#3b82f6" stop-opacity="0.85"/>
    </linearGradient>
    <radialGradient id="g2" cx="30%" cy="20%" r="80%">
      <stop offset="0" stop-color="#22c55e" stop-opacity="0.25"/>
      <stop offset="1" stop-color="#22c55e" stop-opacity="0"/>
    </radialGradient>
  </defs>
  <rect width="1600" height="900" fill="#0b1020"/>
  <circle cx="420" cy="250" r="420" fill="url(#g1)" opacity="0.35"/>
  <circle cx="1180" cy="240" r="520" fill="url(#g1)" opacity="0.25"/>
  <circle cx="900" cy="760" r="560" fill="url(#g2)"/>
  <g fill="none" stroke="rgba(255,255,255,0.25)" stroke-width="2">
    <rect x="240" y="240" width="520" height="360" rx="22"/>
    <rect x="300" y="290" width="400" height="46" rx="14"/>
    <rect x="300" y="360" width="320" height="46" rx="14"/>
    <rect x="300" y="430" width="360" height="46" rx="14"/>
    <rect x="860" y="270" width="500" height="300" rx="22"/>
    <rect x="920" y="320" width="380" height="46" rx="14"/>
    <rect x="920" y="390" width="320" height="46" rx="14"/>
  </g>
  <g fill="rgba(255,255,255,0.25)">
    <circle cx="320" cy="316" r="8"/>
    <circle cx="320" cy="386" r="8"/>
    <circle cx="320" cy="456" r="8"/>
    <circle cx="940" cy="346" r="8"/>
    <circle cx="940" cy="416" r="8"/>
  </g>
  <text x="100" y="820" fill="rgba(255,255,255,0.45)" font-family="system-ui, -apple-system, Segoe UI, Roboto, Arial" font-size="22">WorkerFlow – placeholder illustration</text>
</svg>
